<?xml version="1.0" encoding="UTF-8"?>
<!DOCTYPE svg PUBLIC "-//W3C//DTD SVG 1.1//EN" "http://www.w3.org/Graphics/SVG/1.1/DTD/svg11.dtd">
<svg xmlns="http://www.w3.org/2000/svg" version="1.1" width="2200px" height="1238px" style="shape-rendering:geometricPrecision; text-rendering:geometricPrecision; image-rendering:optimizeQuality; fill-rule:evenodd; clip-rule:evenodd" xmlns:xlink="http://www.w3.org/1999/xlink">
<g><path style="opacity:1" fill="#fefefe" d="M -0.5,-0.5 C 458.5,-0.5 917.5,-0.5 1376.5,-0.5C 1477.55,81.3769 1570.72,171.71 1656,270.5C 1730.67,358.16 1795.17,452.827 1849.5,554.5C 1890.66,633.496 1924.66,715.496 1951.5,800.5C 1968.52,853.912 1981.86,908.245 1991.5,963.5C 1943.13,984.517 1894.13,1004.18 1844.5,1022.5C 1542.3,1131.21 1231.3,1201.54 911.5,1233.5C 910.476,1234.85 909.476,1236.19 908.5,1237.5C 605.5,1237.5 302.5,1237.5 -0.5,1237.5C -0.5,824.833 -0.5,412.167 -0.5,-0.5 Z"/></g>
<g><path style="opacity:1" fill="#f7f9fb" d="M 1380.5,-0.5 C 1384.5,-0.5 1388.5,-0.5 1392.5,-0.5C 1500.84,89.3379 1599.67,188.671 1689,297.5C 1734.6,355.256 1776.43,415.589 1814.5,478.5C 1850.31,539.459 1881.31,602.792 1907.5,668.5C 1907.5,669.167 1907.17,669.5 1906.5,669.5C 1889.37,629.774 1870.7,590.774 1850.5,552.5C 1793.89,446.584 1726.39,348.251 1648,257.5C 1565.69,164.014 1476.52,78.0139 1380.5,-0.5 Z"/></g>
<g><path style="opacity:1" fill="#f8f9fc" d="M 1395.5,-0.5 C 1400.17,-0.5 1404.83,-0.5 1409.5,-0.5C 1507.84,83.0105 1598.34,174.344 1681,273.5C 1757.4,367.442 1821.9,469.108 1874.5,578.5C 1884.96,600.429 1894.63,622.763 1903.5,645.5C 1902.6,646.209 1902.26,647.209 1902.5,648.5C 1877.11,588.712 1847.77,531.046 1814.5,475.5C 1750.07,367.741 1674.24,268.408 1587,177.5C 1526.03,114.684 1462.2,55.3505 1395.5,-0.5 Z"/></g>
<g><path style="opacity:1" fill="#f8fafc" d="M 1413.5,-0.5 C 1418.5,-0.5 1423.5,-0.5 1428.5,-0.5C 1511.5,72.0014 1589,150.001 1661,233.5C 1719.66,303.175 1772.16,377.175 1818.5,455.5C 1859.77,527.003 1894.6,601.67 1923,679.5C 1930.79,701.317 1937.95,723.317 1944.5,745.5C 1944.67,746.492 1944.34,747.158 1943.5,747.5C 1924.94,688.47 1902.27,631.137 1875.5,575.5C 1824.57,468.929 1762.07,369.929 1688,278.5C 1628.1,205.589 1563.6,136.756 1494.5,72C 1467.6,47.5972 1440.6,23.4305 1413.5,-0.5 Z"/></g>
<g><path style="opacity:1" fill="#f9fafc" d="M 1431.5,-0.5 C 1437.5,-0.5 1443.5,-0.5 1449.5,-0.5C 1522.93,65.4308 1591.77,135.764 1656,210.5C 1739.91,308.613 1810.57,415.613 1868,531.5C 1872.42,541.606 1876.92,551.606 1881.5,561.5C 1902.26,607.037 1920.26,653.703 1935.5,701.5C 1935.5,703.5 1935.5,705.5 1935.5,707.5C 1905,618.414 1866,533.414 1818.5,452.5C 1773.13,374.625 1721.3,301.292 1663,232.5C 1591.33,149.335 1514.17,71.6681 1431.5,-0.5 Z"/></g>
<g><path style="opacity:1" fill="#f9fafc" d="M 1452.5,-0.5 C 1459.17,-0.5 1465.83,-0.5 1472.5,-0.5C 1502.38,27.8812 1531.88,56.8812 1561,86.5C 1639.75,167.175 1710.58,253.842 1773.5,346.5C 1850.53,462.91 1908.69,588.576 1948,723.5C 1951.82,737.083 1955.32,750.75 1958.5,764.5C 1958.74,765.791 1958.4,766.791 1957.5,767.5C 1938.73,696.177 1914.06,627.177 1883.5,560.5C 1837.41,459.646 1780.58,365.313 1713,277.5C 1634.87,177.19 1548.04,84.5231 1452.5,-0.5 Z"/></g>
<g><path style="opacity:1" fill="#fafbfc" d="M 1475.5,-0.5 C 1482.83,-0.5 1490.17,-0.5 1497.5,-0.5C 1558.92,59.8079 1617.08,122.808 1672,188.5C 1693.75,216.066 1715.25,243.733 1736.5,271.5C 1804.96,366.053 1861.29,467.719 1905.5,576.5C 1922.23,620.513 1937.06,665.179 1950,710.5C 1951.61,717.151 1953.11,723.818 1954.5,730.5C 1954.5,732.833 1954.5,735.167 1954.5,737.5C 1915.31,596.16 1854.97,464.827 1773.5,343.5C 1711.91,252.142 1642.41,166.809 1565,87.5C 1535.58,57.5752 1505.74,28.2419 1475.5,-0.5 Z"/></g>
<g><path style="opacity:1" fill="#fafbfd" d="M 1500.5,-0.5 C 1508.5,-0.5 1516.5,-0.5 1524.5,-0.5C 1578.24,54.7302 1629.41,112.064 1678,171.5C 1720.08,224.729 1759.58,279.729 1796.5,336.5C 1853.93,429.541 1899.76,528.208 1934,632.5C 1950.71,684.537 1963.54,737.537 1972.5,791.5C 1972.67,792.492 1972.34,793.158 1971.5,793.5C 1956.66,717.538 1934.66,643.871 1905.5,572.5C 1862.39,464.252 1806.39,363.585 1737.5,270.5C 1687.98,203.121 1634.48,138.787 1577,77.5C 1551.66,51.3268 1526.16,25.3268 1500.5,-0.5 Z"/></g>
<g><path style="opacity:1" fill="#fbfcfd" d="M 1527.5,-0.5 C 1536.5,-0.5 1545.5,-0.5 1554.5,-0.5C 1613.49,63.9785 1669.32,130.979 1722,200.5C 1788.68,290.181 1844.85,386.181 1890.5,488.5C 1928.51,576.867 1955.85,668.534 1972.5,763.5C 1972.16,764.338 1971.49,764.672 1970.5,764.5C 1938.96,610.498 1881.29,467.498 1797.5,335.5C 1743.42,249.893 1682.58,169.227 1615,93.5C 1586.36,61.6948 1557.2,30.3615 1527.5,-0.5 Z"/></g>
<g><path style="opacity:1" fill="#fbfcfd" d="M 1557.5,-0.5 C 1567.17,-0.5 1576.83,-0.5 1586.5,-0.5C 1642.13,63.7749 1694.63,130.442 1744,199.5C 1803.73,284.62 1854.4,374.954 1896,470.5C 1904.22,490.922 1912.39,511.255 1920.5,531.5C 1939.13,585.895 1954.63,641.228 1967,697.5C 1971.82,722.728 1975.99,748.061 1979.5,773.5C 1979.5,777.5 1979.5,781.5 1979.5,785.5C 1963,681.993 1933.67,582.327 1891.5,486.5C 1855.86,404.991 1813.03,327.657 1763,254.5C 1730.54,208.035 1696.54,162.702 1661,118.5C 1627.39,78.0549 1592.89,38.3882 1557.5,-0.5 Z"/></g>
<g><path style="opacity:1" fill="#fbfcfd" d="M 1589.5,-0.5 C 1600.17,-0.5 1610.83,-0.5 1621.5,-0.5C 1686.23,79.6143 1746.06,163.281 1801,250.5C 1820.89,283.611 1839.72,317.278 1857.5,351.5C 1923.37,479.725 1965.54,615.725 1984,759.5C 1986.56,780.78 1988.39,802.113 1989.5,823.5C 1989.78,825.415 1989.45,827.081 1988.5,828.5C 1978.98,725.799 1956.65,626.132 1921.5,529.5C 1881.67,422.395 1829.84,321.728 1766,227.5C 1711.27,148.398 1652.44,72.3981 1589.5,-0.5 Z"/></g>
<g><path style="opacity:1" fill="#fcfcfd" d="M 1624.5,-0.5 C 1636.17,-0.5 1647.83,-0.5 1659.5,-0.5C 1704.1,59.9539 1746.6,121.954 1787,185.5C 1819.57,237.926 1849.41,291.926 1876.5,347.5C 1919.4,438.688 1951.23,533.688 1972,632.5C 1982.96,688.155 1990.12,744.155 1993.5,800.5C 1994.11,809.487 1994.44,818.487 1994.5,827.5C 1994.82,834.354 1994.49,841.021 1993.5,847.5C 1984.83,671.201 1939.83,505.201 1858.5,349.5C 1829.72,293.255 1797.89,238.921 1763,186.5C 1718.93,122.599 1672.76,60.2654 1624.5,-0.5 Z"/></g>
<g><path style="opacity:1" fill="#fcfcfd" d="M 1662.5,-0.5 C 1675.17,-0.5 1687.83,-0.5 1700.5,-0.5C 1742.82,62.3569 1782.99,126.69 1821,192.5C 1848.54,241.593 1873.7,291.926 1896.5,343.5C 1957.32,481.37 1991.32,625.703 1998.5,776.5C 1998.5,786.167 1998.5,795.833 1998.5,805.5C 1998.83,819.677 1998.5,833.677 1997.5,847.5C 1997.82,840.646 1997.49,833.979 1996.5,827.5C 1996.24,814.477 1995.58,801.477 1994.5,788.5C 1983.85,632.558 1944.52,484.558 1876.5,344.5C 1836.85,261.851 1791.01,182.851 1739,107.5C 1713.73,71.2661 1688.23,35.2661 1662.5,-0.5 Z"/></g>
<g><path style="opacity:1" fill="#fcfdfe" d="M 1703.5,-0.5 C 1717.17,-0.5 1730.83,-0.5 1744.5,-0.5C 1780.88,60.2672 1815.72,121.934 1849,184.5C 1897.43,277.384 1935.93,374.384 1964.5,475.5C 1998.54,603.65 2011.21,733.983 2002.5,866.5C 2001.52,862.702 2001.18,858.702 2001.5,854.5C 2001.72,829.821 2001.38,805.155 2000.5,780.5C 1994.23,627.073 1959.9,480.74 1897.5,341.5C 1876.11,292.715 1852.61,245.048 1827,198.5C 1787.83,130.801 1746.66,64.4681 1703.5,-0.5 Z"/></g>
<g><path style="opacity:1" fill="#fcfdfe" d="M 1747.5,-0.5 C 1762.17,-0.5 1776.83,-0.5 1791.5,-0.5C 1837.64,84.7452 1879.47,172.078 1917,261.5C 1926.19,284.841 1935.02,308.174 1943.5,331.5C 1973.92,419.517 1994.75,509.85 2006,602.5C 2014.77,693.183 2014.6,783.85 2005.5,874.5C 2004.55,873.081 2004.22,871.415 2004.5,869.5C 2012.41,751.514 2003.58,634.848 1978,519.5C 1974.26,503.59 1970.09,487.923 1965.5,472.5C 1944.26,394.606 1916.43,319.273 1882,246.5C 1865.91,213.236 1849.24,180.236 1832,147.5C 1804.58,97.6557 1776.42,48.3224 1747.5,-0.5 Z"/></g>
<g><path style="opacity:1" fill="#fcfdfe" d="M 1794.5,-0.5 C 1810.17,-0.5 1825.83,-0.5 1841.5,-0.5C 1888.69,98.2271 1929.53,199.56 1964,303.5C 1970.12,324.667 1976.28,345.667 1982.5,366.5C 2004.84,452.184 2018.5,539.184 2023.5,627.5C 2024.66,660.505 2024.66,693.505 2023.5,726.5C 2021.25,772.874 2016.92,819.207 2010.5,865.5C 2009.53,863.052 2009.19,860.385 2009.5,857.5C 2027.52,675.544 2005.52,498.877 1943.5,327.5C 1928.32,283.821 1911.49,240.821 1893,198.5C 1861.79,131.405 1828.95,65.0714 1794.5,-0.5 Z"/></g>
<g><path style="opacity:1" fill="#fdfdfe" d="M 1844.5,-0.5 C 1861.5,-0.5 1878.5,-0.5 1895.5,-0.5C 1923.3,71.4328 1949.13,144.1 1973,217.5C 2004.61,317.616 2025.28,419.95 2035,524.5C 2038.61,578.449 2039.45,632.449 2037.5,686.5C 2033.44,748.566 2025.44,810.233 2013.5,871.5C 2012.66,871.158 2012.33,870.492 2012.5,869.5C 2017.97,828.636 2021.97,787.636 2024.5,746.5C 2026.5,709.994 2026.84,673.328 2025.5,636.5C 2021.97,542.636 2007.63,450.636 1982.5,360.5C 1966.74,302.129 1947.91,244.796 1926,188.5C 1900.41,124.669 1873.24,61.6691 1844.5,-0.5 Z"/></g>
<g><path style="opacity:1" fill="#fdfdfe" d="M 1897.5,-0.5 C 1915.5,-0.5 1933.5,-0.5 1951.5,-0.5C 1973.67,67.5103 1993.67,136.177 2011.5,205.5C 2027.33,270.483 2039.83,336.15 2049,402.5C 2052.04,430.932 2054.54,459.266 2056.5,487.5C 2059.12,534.164 2059.12,580.831 2056.5,627.5C 2051.39,710.986 2038.39,793.32 2017.5,874.5C 2016.6,873.791 2016.26,872.791 2016.5,871.5C 2027.65,814.695 2034.98,757.361 2038.5,699.5C 2045.62,590.133 2038.12,481.8 2016,374.5C 2003.07,312.179 1986.74,250.846 1967,190.5C 1945.51,126.198 1922.35,62.5313 1897.5,-0.5 Z"/></g>
<g><path style="opacity:1" fill="#fdfdfe" d="M 1954.5,-0.5 C 1973.5,-0.5 1992.5,-0.5 2011.5,-0.5C 2024.64,54.3287 2037.14,109.329 2049,164.5C 2065.4,246.081 2076.4,328.415 2082,411.5C 2083.8,455.162 2083.97,498.828 2082.5,542.5C 2075.84,660.484 2054.51,775.817 2018.5,888.5C 2017.6,887.791 2017.26,886.791 2017.5,885.5C 2032.53,825.854 2044.03,765.521 2052,704.5C 2054.34,683.874 2056.17,663.207 2057.5,642.5C 2059.19,633.055 2059.86,623.388 2059.5,613.5C 2061.24,566.31 2060.58,519.31 2057.5,472.5C 2050.95,380.612 2035.95,290.278 2012.5,201.5C 1994.99,133.631 1975.65,66.2973 1954.5,-0.5 Z"/></g>
<g><path style="opacity:1" fill="#fdfdfe" d="M 2013.5,-0.5 C 2033.5,-0.5 2053.5,-0.5 2073.5,-0.5C 2090.92,89.6163 2103.58,180.283 2111.5,271.5C 2115.6,337.441 2116.6,403.441 2114.5,469.5C 2105.6,615.101 2074.6,755.767 2021.5,891.5C 2020.66,891.158 2020.33,890.492 2020.5,889.5C 2047.21,806.328 2065.87,721.328 2076.5,634.5C 2077.27,633.737 2077.77,632.737 2078,631.5C 2078.5,627.848 2078.67,624.182 2078.5,620.5C 2080.92,595.197 2082.92,569.864 2084.5,544.5C 2087.94,455.091 2083.44,366.091 2071,277.5C 2056.58,183.808 2037.41,91.1413 2013.5,-0.5 Z"/></g>
<g><path style="opacity:1" fill="#fdfdfe" d="M 2075.5,-0.5 C 2096.5,-0.5 2117.5,-0.5 2138.5,-0.5C 2146.27,60.1162 2151.94,120.783 2155.5,181.5C 2159.45,250.83 2159.45,320.163 2155.5,389.5C 2144.26,545.273 2108.76,695.273 2049,839.5C 2040.49,859.193 2031.99,878.859 2023.5,898.5C 2022.66,898.158 2022.33,897.492 2022.5,896.5C 2069.15,775.658 2099.32,650.658 2113,521.5C 2114.07,508.175 2114.9,494.842 2115.5,481.5C 2120.22,408.401 2119.22,335.401 2112.5,262.5C 2104.92,174.121 2092.59,86.4544 2075.5,-0.5 Z"/></g>
<g><path style="opacity:1" fill="#fdfefe" d="M 2141.5,-0.5 C 2160.83,-0.5 2180.17,-0.5 2199.5,-0.5C 2199.5,123.833 2199.5,248.167 2199.5,372.5C 2178.81,530.743 2133.97,681.743 2065,825.5C 2054.81,847.282 2043.98,868.615 2032.5,889.5C 2031.6,888.791 2031.26,887.791 2031.5,886.5C 2096.66,742.56 2137.5,591.894 2154,434.5C 2155.16,422.184 2156,409.85 2156.5,397.5C 2161.5,323.194 2161.83,248.861 2157.5,174.5C 2153.55,116.031 2148.22,57.6977 2141.5,-0.5 Z"/></g>
<g><path style="opacity:1" fill="#728dbb" d="M 2073.5,-0.5 C 2074.17,-0.5 2074.83,-0.5 2075.5,-0.5C 2092.59,86.4544 2104.92,174.121 2112.5,262.5C 2111.52,265.287 2111.19,268.287 2111.5,271.5C 2103.58,180.283 2090.92,89.6163 2073.5,-0.5 Z"/></g>
<g><path style="opacity:1" fill="#718dbd" d="M 1524.5,-0.5 C 1525.5,-0.5 1526.5,-0.5 1527.5,-0.5C 1557.2,30.3615 1586.36,61.6948 1615,93.5C 1682.58,169.227 1743.42,249.893 1797.5,335.5C 1796.83,335.5 1796.5,335.833 1796.5,336.5C 1759.58,279.729 1720.08,224.729 1678,171.5C 1629.41,112.064 1578.24,54.7302 1524.5,-0.5 Z"/></g>
<g><path style="opacity:1" fill="#728dbb" d="M 2138.5,-0.5 C 2139.5,-0.5 2140.5,-0.5 2141.5,-0.5C 2148.22,57.6977 2153.55,116.031 2157.5,174.5C 2156.68,171.695 2156.18,168.695 2156,165.5C 2155.5,170.823 2155.33,176.156 2155.5,181.5C 2151.94,120.783 2146.27,60.1162 2138.5,-0.5 Z"/></g>
<g><path style="opacity:1" fill="#708cbc" d="M 1621.5,-0.5 C 1622.5,-0.5 1623.5,-0.5 1624.5,-0.5C 1672.76,60.2654 1718.93,122.599 1763,186.5C 1797.89,238.921 1829.72,293.255 1858.5,349.5C 1858.67,350.492 1858.34,351.158 1857.5,351.5C 1839.72,317.278 1820.89,283.611 1801,250.5C 1746.06,163.281 1686.23,79.6143 1621.5,-0.5 Z"/></g>
<g><path style="opacity:1" fill="#728fbe" d="M 2011.5,-0.5 C 2012.17,-0.5 2012.83,-0.5 2013.5,-0.5C 2037.41,91.1413 2056.58,183.808 2071,277.5C 2083.44,366.091 2087.94,455.091 2084.5,544.5C 2083.17,544.5 2082.5,543.833 2082.5,542.5C 2083.97,498.828 2083.8,455.162 2082,411.5C 2076.4,328.415 2065.4,246.081 2049,164.5C 2037.14,109.329 2024.64,54.3287 2011.5,-0.5 Z"/></g>
<g><path style="opacity:1" fill="#718dbd" d="M 1659.5,-0.5 C 1660.5,-0.5 1661.5,-0.5 1662.5,-0.5C 1688.23,35.2661 1713.73,71.2661 1739,107.5C 1791.01,182.851 1836.85,261.851 1876.5,344.5C 1876.5,345.5 1876.5,346.5 1876.5,347.5C 1849.41,291.926 1819.57,237.926 1787,185.5C 1746.6,121.954 1704.1,59.9539 1659.5,-0.5 Z"/></g>
<g><path style="opacity:1" fill="#708bbb" d="M 1951.5,-0.5 C 1952.5,-0.5 1953.5,-0.5 1954.5,-0.5C 1975.65,66.2973 1994.99,133.631 2012.5,201.5C 2012.77,203.099 2012.43,204.432 2011.5,205.5C 1993.67,136.177 1973.67,67.5103 1951.5,-0.5 Z"/></g>
<g><path style="opacity:1" fill="#718dbc" d="M 1497.5,-0.5 C 1498.5,-0.5 1499.5,-0.5 1500.5,-0.5C 1526.16,25.3268 1551.66,51.3268 1577,77.5C 1634.48,138.787 1687.98,203.121 1737.5,270.5C 1736.83,270.5 1736.5,270.833 1736.5,271.5C 1715.25,243.733 1693.75,216.066 1672,188.5C 1617.08,122.808 1558.92,59.8079 1497.5,-0.5 Z"/></g>
<g><path style="opacity:1" fill="#738fbf" d="M 1449.5,-0.5 C 1450.5,-0.5 1451.5,-0.5 1452.5,-0.5C 1548.04,84.5231 1634.87,177.19 1713,277.5C 1780.58,365.313 1837.41,459.646 1883.5,560.5C 1883.59,562.698 1882.92,563.031 1881.5,561.5C 1876.92,551.606 1872.42,541.606 1868,531.5C 1810.57,415.613 1739.91,308.613 1656,210.5C 1591.77,135.764 1522.93,65.4308 1449.5,-0.5 Z"/></g>
<g><path style="opacity:1" fill="#708cbc" d="M 1791.5,-0.5 C 1792.5,-0.5 1793.5,-0.5 1794.5,-0.5C 1828.95,65.0714 1861.79,131.405 1893,198.5C 1911.49,240.821 1928.32,283.821 1943.5,327.5C 1943.5,328.833 1943.5,330.167 1943.5,331.5C 1935.02,308.174 1926.19,284.841 1917,261.5C 1879.47,172.078 1837.64,84.7452 1791.5,-0.5 Z"/></g>
<g><path style="opacity:1" fill="#718dbc" d="M 1700.5,-0.5 C 1701.5,-0.5 1702.5,-0.5 1703.5,-0.5C 1746.66,64.4681 1787.83,130.801 1827,198.5C 1852.61,245.048 1876.11,292.715 1897.5,341.5C 1897.67,342.492 1897.34,343.158 1896.5,343.5C 1873.7,291.926 1848.54,241.593 1821,192.5C 1782.99,126.69 1742.82,62.3569 1700.5,-0.5 Z"/></g>
<g><path style="opacity:1" fill="#728ebf" d="M 1392.5,-0.5 C 1393.5,-0.5 1394.5,-0.5 1395.5,-0.5C 1462.2,55.3505 1526.03,114.684 1587,177.5C 1674.24,268.408 1750.07,367.741 1814.5,475.5C 1814.5,476.5 1814.5,477.5 1814.5,478.5C 1776.43,415.589 1734.6,355.256 1689,297.5C 1599.67,188.671 1500.84,89.3379 1392.5,-0.5 Z"/></g>
<g><path style="opacity:1" fill="#7693c2" d="M 1895.5,-0.5 C 1896.17,-0.5 1896.83,-0.5 1897.5,-0.5C 1922.35,62.5313 1945.51,126.198 1967,190.5C 1986.74,250.846 2003.07,312.179 2016,374.5C 2038.12,481.8 2045.62,590.133 2038.5,699.5C 2037.52,695.366 2037.18,691.032 2037.5,686.5C 2039.45,632.449 2038.61,578.449 2035,524.5C 2025.28,419.95 2004.61,317.616 1973,217.5C 1949.13,144.1 1923.3,71.4328 1895.5,-0.5 Z"/></g>
<g><path style="opacity:1" fill="#718dbd" d="M 1472.5,-0.5 C 1473.5,-0.5 1474.5,-0.5 1475.5,-0.5C 1505.74,28.2419 1535.58,57.5752 1565,87.5C 1642.41,166.809 1711.91,252.142 1773.5,343.5C 1773.5,344.5 1773.5,345.5 1773.5,346.5C 1710.58,253.842 1639.75,167.175 1561,86.5C 1531.88,56.8812 1502.38,27.8812 1472.5,-0.5 Z"/></g>
<g><path style="opacity:1" fill="#708dbe" d="M 2157.5,174.5 C 2161.83,248.861 2161.5,323.194 2156.5,397.5C 2155.53,395.052 2155.19,392.385 2155.5,389.5C 2159.45,320.163 2159.45,250.83 2155.5,181.5C 2155.33,176.156 2155.5,170.823 2156,165.5C 2156.18,168.695 2156.68,171.695 2157.5,174.5 Z"/></g>
<g><path style="opacity:1" fill="#738fc0" d="M 1409.5,-0.5 C 1410.83,-0.5 1412.17,-0.5 1413.5,-0.5C 1440.6,23.4305 1467.6,47.5972 1494.5,72C 1563.6,136.756 1628.1,205.589 1688,278.5C 1762.07,369.929 1824.57,468.929 1875.5,575.5C 1875.74,576.791 1875.4,577.791 1874.5,578.5C 1821.9,469.108 1757.4,367.442 1681,273.5C 1598.34,174.344 1507.84,83.0105 1409.5,-0.5 Z"/></g>
<g><path style="opacity:1" fill="#728fc0" d="M 1376.5,-0.5 C 1377.83,-0.5 1379.17,-0.5 1380.5,-0.5C 1476.52,78.0139 1565.69,164.014 1648,257.5C 1726.39,348.251 1793.89,446.584 1850.5,552.5C 1850.67,553.492 1850.34,554.158 1849.5,554.5C 1795.17,452.827 1730.67,358.16 1656,270.5C 1570.72,171.71 1477.55,81.3769 1376.5,-0.5 Z"/></g>
<g><path style="opacity:1" fill="#718ebe" d="M 1428.5,-0.5 C 1429.5,-0.5 1430.5,-0.5 1431.5,-0.5C 1514.17,71.6681 1591.33,149.335 1663,232.5C 1721.3,301.292 1773.13,374.625 1818.5,452.5C 1818.5,453.5 1818.5,454.5 1818.5,455.5C 1772.16,377.175 1719.66,303.175 1661,233.5C 1589,150.001 1511.5,72.0014 1428.5,-0.5 Z"/></g>
<g><path style="opacity:1" fill="#728fbf" d="M 1554.5,-0.5 C 1555.5,-0.5 1556.5,-0.5 1557.5,-0.5C 1592.89,38.3882 1627.39,78.0549 1661,118.5C 1696.54,162.702 1730.54,208.035 1763,254.5C 1813.03,327.657 1855.86,404.991 1891.5,486.5C 1891.67,487.492 1891.34,488.158 1890.5,488.5C 1844.85,386.181 1788.68,290.181 1722,200.5C 1669.32,130.979 1613.49,63.9785 1554.5,-0.5 Z"/></g>
<g><path style="opacity:1" fill="#728ebe" d="M 1841.5,-0.5 C 1842.5,-0.5 1843.5,-0.5 1844.5,-0.5C 1873.24,61.6691 1900.41,124.669 1926,188.5C 1947.91,244.796 1966.74,302.129 1982.5,360.5C 1982.5,362.5 1982.5,364.5 1982.5,366.5C 1976.28,345.667 1970.12,324.667 1964,303.5C 1929.53,199.56 1888.69,98.2271 1841.5,-0.5 Z"/></g>
<g><path style="opacity:1" fill="#7c98c6" d="M 2112.5,262.5 C 2119.22,335.401 2120.22,408.401 2115.5,481.5C 2114.52,477.702 2114.18,473.702 2114.5,469.5C 2116.6,403.441 2115.6,337.441 2111.5,271.5C 2111.19,268.287 2111.52,265.287 2112.5,262.5 Z"/></g>
<g><path style="opacity:1" fill="#7793c3" d="M 2012.5,201.5 C 2035.95,290.278 2050.95,380.612 2057.5,472.5C 2056.51,477.305 2056.18,482.305 2056.5,487.5C 2054.54,459.266 2052.04,430.932 2049,402.5C 2039.83,336.15 2027.33,270.483 2011.5,205.5C 2012.43,204.432 2012.77,203.099 2012.5,201.5 Z"/></g>
<g><path style="opacity:1" fill="#7998c9" d="M 1943.5,327.5 C 2005.52,498.877 2027.52,675.544 2009.5,857.5C 2008.61,867.575 2007.28,877.741 2005.5,888C 2005.51,889.707 2005.84,891.207 2006.5,892.5C 2005.88,896.863 2005.05,901.197 2004,905.5C 2004.53,900.346 2004.37,895.346 2003.5,890.5C 2003.95,885.124 2004.62,879.791 2005.5,874.5C 2014.6,783.85 2014.77,693.183 2006,602.5C 1994.75,509.85 1973.92,419.517 1943.5,331.5C 1943.5,330.167 1943.5,328.833 1943.5,327.5 Z"/></g>
<g><path style="opacity:1" fill="#fcfdfd" d="M 2199.5,391.5 C 2199.5,443.833 2199.5,496.167 2199.5,548.5C 2155.25,678.321 2096.25,800.321 2022.5,914.5C 2091,789.557 2142.16,657.557 2176,518.5C 2185.08,476.281 2192.91,433.948 2199.5,391.5 Z"/></g>
<g><path style="opacity:1" fill="#7390c0" d="M 1586.5,-0.5 C 1587.5,-0.5 1588.5,-0.5 1589.5,-0.5C 1652.44,72.3981 1711.27,148.398 1766,227.5C 1829.84,321.728 1881.67,422.395 1921.5,529.5C 1920.66,529.842 1920.33,530.508 1920.5,531.5C 1912.39,511.255 1904.22,490.922 1896,470.5C 1854.4,374.954 1803.73,284.62 1744,199.5C 1694.63,130.442 1642.13,63.7749 1586.5,-0.5 Z"/></g>
<g><path style="opacity:1" fill="#7392c3" d="M 1737.5,270.5 C 1806.39,363.585 1862.39,464.252 1905.5,572.5C 1905.5,573.833 1905.5,575.167 1905.5,576.5C 1861.29,467.719 1804.96,366.053 1736.5,271.5C 1736.5,270.833 1736.83,270.5 1737.5,270.5 Z"/></g>
<g><path style="opacity:1" fill="#7997c8" d="M 1876.5,344.5 C 1944.52,484.558 1983.85,632.558 1994.5,788.5C 1993.52,792.298 1993.18,796.298 1993.5,800.5C 1990.12,744.155 1982.96,688.155 1972,632.5C 1951.23,533.688 1919.4,438.688 1876.5,347.5C 1876.5,346.5 1876.5,345.5 1876.5,344.5 Z"/></g>
<g><path style="opacity:1" fill="#7390c1" d="M 1744.5,-0.5 C 1745.5,-0.5 1746.5,-0.5 1747.5,-0.5C 1776.42,48.3224 1804.58,97.6557 1832,147.5C 1849.24,180.236 1865.91,213.236 1882,246.5C 1916.43,319.273 1944.26,394.606 1965.5,472.5C 1965.74,473.791 1965.4,474.791 1964.5,475.5C 1935.93,374.384 1897.43,277.384 1849,184.5C 1815.72,121.934 1780.88,60.2672 1744.5,-0.5 Z"/></g>
<g><path style="opacity:1" fill="#7795c6" d="M 1982.5,360.5 C 2007.63,450.636 2021.97,542.636 2025.5,636.5C 2024.67,631.015 2024.17,625.348 2024,619.5C 2023.5,622.146 2023.34,624.813 2023.5,627.5C 2018.5,539.184 2004.84,452.184 1982.5,366.5C 1982.5,364.5 1982.5,362.5 1982.5,360.5 Z"/></g>
<g><path style="opacity:1" fill="#7b9bcc" d="M 1965.5,472.5 C 1970.09,487.923 1974.26,503.59 1978,519.5C 2003.58,634.848 2012.41,751.514 2004.5,869.5C 2003.7,875.337 2003.04,881.337 2002.5,887.5C 2002.52,888.726 2002.85,889.726 2003.5,890.5C 2003.8,892.604 2003.47,894.604 2002.5,896.5C 2001.72,895.271 2001.22,893.938 2001,892.5C 2000.67,895.5 2000.33,898.5 2000,901.5C 1999.18,892.657 1999.34,883.99 2000.5,875.5C 2000.34,876.873 2000.51,878.207 2001,879.5C 2001.58,875.168 2002.08,870.835 2002.5,866.5C 2011.21,733.983 1998.54,603.65 1964.5,475.5C 1965.4,474.791 1965.74,473.791 1965.5,472.5 Z"/></g>
<g><path style="opacity:1" fill="#7192c5" d="M 2057.5,472.5 C 2060.58,519.31 2061.24,566.31 2059.5,613.5C 2058.49,621.991 2057.82,630.657 2057.5,639.5C 2056.52,635.702 2056.18,631.702 2056.5,627.5C 2059.12,580.831 2059.12,534.164 2056.5,487.5C 2056.18,482.305 2056.51,477.305 2057.5,472.5 Z"/></g>
<g><path style="opacity:1" fill="#7998ca" d="M 1891.5,486.5 C 1933.67,582.327 1963,681.993 1979.5,785.5C 1980.51,796.876 1981.84,808.21 1983.5,819.5C 1982.57,820.568 1982.23,821.901 1982.5,823.5C 1981.83,820.167 1981.17,816.833 1980.5,813.5C 1978.28,796.631 1975.62,779.965 1972.5,763.5C 1955.85,668.534 1928.51,576.867 1890.5,488.5C 1891.34,488.158 1891.67,487.492 1891.5,486.5 Z"/></g>
<g><path style="opacity:1" fill="#7898ca" d="M 1921.5,529.5 C 1956.65,626.132 1978.98,725.799 1988.5,828.5C 1989.22,836.828 1989.89,845.161 1990.5,853.5C 1990.67,857.182 1990.5,860.848 1990,864.5C 1989.66,861.12 1989.16,857.787 1988.5,854.5C 1987.72,843.334 1986.72,832.334 1985.5,821.5C 1984.44,805.242 1982.44,789.242 1979.5,773.5C 1975.99,748.061 1971.82,722.728 1967,697.5C 1954.63,641.228 1939.13,585.895 1920.5,531.5C 1920.33,530.508 1920.66,529.842 1921.5,529.5 Z"/></g>
<g><path style="opacity:1" fill="#fbfcfd" d="M 2199.5,555.5 C 2199.5,580.167 2199.5,604.833 2199.5,629.5C 2163.46,703.52 2122.8,774.854 2077.5,843.5C 2059.59,869.93 2041.42,896.263 2023,922.5C 2022.35,923.696 2021.85,923.696 2021.5,922.5C 2095,807.156 2154.34,684.822 2199.5,555.5 Z"/></g>
<g><path style="opacity:1" fill="#7394c9" d="M 2025.5,636.5 C 2026.84,673.328 2026.5,709.994 2024.5,746.5C 2023.51,740.021 2023.18,733.354 2023.5,726.5C 2024.66,693.505 2024.66,660.505 2023.5,627.5C 2023.34,624.813 2023.5,622.146 2024,619.5C 2024.17,625.348 2024.67,631.015 2025.5,636.5 Z"/></g>
<g><path style="opacity:1" fill="#7696c9" d="M 1814.5,475.5 C 1847.77,531.046 1877.11,588.712 1902.5,648.5C 1916.91,683.145 1930.24,718.145 1942.5,753.5C 1943.55,759.681 1945.21,765.681 1947.5,771.5C 1946.66,771.842 1946.33,772.508 1946.5,773.5C 1945.8,771.371 1944.8,769.371 1943.5,767.5C 1943.47,764.084 1942.47,761.084 1940.5,758.5C 1931.16,727.837 1920.16,697.837 1907.5,668.5C 1881.31,602.792 1850.31,539.459 1814.5,478.5C 1814.5,477.5 1814.5,476.5 1814.5,475.5 Z"/></g>
<g><path style="opacity:1" fill="#d4deee" d="M 2059.5,613.5 C 2059.86,623.388 2059.19,633.055 2057.5,642.5C 2057.5,641.5 2057.5,640.5 2057.5,639.5C 2057.82,630.657 2058.49,621.991 2059.5,613.5 Z"/></g>
<g><path style="opacity:1" fill="#d0dbec" d="M 2078.5,620.5 C 2078.67,624.182 2078.5,627.848 2078,631.5C 2077.77,632.737 2077.27,633.737 2076.5,634.5C 2076.69,629.63 2077.36,624.964 2078.5,620.5 Z"/></g>
<g><path style="opacity:1" fill="#fbfcfd" d="M 2199.5,635.5 C 2199.5,651.833 2199.5,668.167 2199.5,684.5C 2161.64,744.208 2121.31,802.208 2078.5,858.5C 2061.24,880.268 2043.74,901.935 2026,923.5C 2025.83,923.167 2025.67,922.833 2025.5,922.5C 2043.92,897.326 2061.58,871.66 2078.5,845.5C 2123.42,778.343 2163.76,708.343 2199.5,635.5 Z"/></g>
<g><path style="opacity:1" fill="#e1e8f3" d="M 1907.5,668.5 C 1920.16,697.837 1931.16,727.837 1940.5,758.5C 1929.58,728.752 1918.25,699.086 1906.5,669.5C 1907.17,669.5 1907.5,669.167 1907.5,668.5 Z"/></g>
<g><path style="opacity:1" fill="#e8edf6" d="M 1903.5,645.5 C 1918.73,680.639 1931.73,716.639 1942.5,753.5C 1930.24,718.145 1916.91,683.145 1902.5,648.5C 1902.26,647.209 1902.6,646.209 1903.5,645.5 Z"/></g>
<g><path style="opacity:1" fill="#7796c9" d="M 1797.5,335.5 C 1881.29,467.498 1938.96,610.498 1970.5,764.5C 1974.15,782.049 1977.15,799.716 1979.5,817.5C 1980.35,824.177 1981.35,830.844 1982.5,837.5C 1982.66,839.857 1982.5,842.19 1982,844.5C 1981.5,842.482 1981,840.482 1980.5,838.5C 1978.58,822.583 1975.91,806.917 1972.5,791.5C 1963.54,737.537 1950.71,684.537 1934,632.5C 1899.76,528.208 1853.93,429.541 1796.5,336.5C 1796.5,335.833 1796.83,335.5 1797.5,335.5 Z"/></g>
<g><path style="opacity:1" fill="#fbfcfd" d="M 2199.5,689.5 C 2199.5,701.833 2199.5,714.167 2199.5,726.5C 2182.2,747.98 2165.03,769.646 2148,791.5C 2109.41,837.96 2069.41,883.293 2028,927.5C 2027.28,928.451 2026.45,928.617 2025.5,928C 2044.36,905.742 2062.36,882.909 2079.5,859.5C 2098.37,836.107 2116.54,812.107 2134,787.5C 2156.6,755.284 2178.43,722.618 2199.5,689.5 Z"/></g>
<g><path style="opacity:1" fill="#7a99ca" d="M 1897.5,341.5 C 1959.9,480.74 1994.23,627.073 2000.5,780.5C 1999.68,776.688 1999.18,772.688 1999,768.5C 1998.5,771.146 1998.34,773.813 1998.5,776.5C 1991.32,625.703 1957.32,481.37 1896.5,343.5C 1897.34,343.158 1897.67,342.492 1897.5,341.5 Z"/></g>
<g><path style="opacity:1" fill="#7b9bce" d="M 2037.5,686.5 C 2037.18,691.032 2037.52,695.366 2038.5,699.5C 2034.98,757.361 2027.65,814.695 2016.5,871.5C 2014.29,881.199 2011.96,890.866 2009.5,900.5C 2009.74,899.209 2009.4,898.209 2008.5,897.5C 2009.23,896.292 2009.57,894.959 2009.5,893.5C 2010.7,886.143 2012.04,878.81 2013.5,871.5C 2025.44,810.233 2033.44,748.566 2037.5,686.5 Z"/></g>
<g><path style="opacity:1" fill="#7a9bcd" d="M 2082.5,542.5 C 2082.5,543.833 2083.17,544.5 2084.5,544.5C 2082.92,569.864 2080.92,595.197 2078.5,620.5C 2077.36,624.964 2076.69,629.63 2076.5,634.5C 2065.87,721.328 2047.21,806.328 2020.5,889.5C 2017.47,897.599 2014.8,905.933 2012.5,914.5C 2012.54,917.425 2011.71,920.091 2010,922.5C 2009.64,919.456 2008.97,919.122 2008,921.5C 2007.74,918.423 2008.24,915.423 2009.5,912.5C 2009.26,909.937 2008.76,909.937 2008,912.5C 2007.32,910.402 2007.49,908.402 2008.5,906.5C 2009.79,905.158 2010.63,903.491 2011,901.5C 2013.01,892.449 2015.18,883.449 2017.5,874.5C 2038.39,793.32 2051.39,710.986 2056.5,627.5C 2056.18,631.702 2056.52,635.702 2057.5,639.5C 2057.5,640.5 2057.5,641.5 2057.5,642.5C 2056.17,663.207 2054.34,683.874 2052,704.5C 2044.03,765.521 2032.53,825.854 2017.5,885.5C 2014.76,892.561 2012.93,899.894 2012,907.5C 2014.18,901.141 2016.35,894.808 2018.5,888.5C 2054.51,775.817 2075.84,660.484 2082.5,542.5 Z"/></g>
<g><path style="opacity:1" fill="#7999cb" d="M 2155.5,389.5 C 2155.19,392.385 2155.53,395.052 2156.5,397.5C 2156,409.85 2155.16,422.184 2154,434.5C 2137.5,591.894 2096.66,742.56 2031.5,886.5C 2027.21,896.374 2022.54,906.041 2017.5,915.5C 2017.19,914.262 2016.69,914.262 2016,915.5C 2015.19,917.623 2014.19,919.623 2013,921.5C 2013.29,918.444 2014.13,915.444 2015.5,912.5C 2015.46,911.584 2015.12,910.917 2014.5,910.5C 2017.03,904.249 2019.36,897.915 2021.5,891.5C 2074.6,755.767 2105.6,615.101 2114.5,469.5C 2114.18,473.702 2114.52,477.702 2115.5,481.5C 2114.9,494.842 2114.07,508.175 2113,521.5C 2099.32,650.658 2069.15,775.658 2022.5,896.5C 2019.77,901.521 2017.94,906.854 2017,912.5C 2019.27,907.846 2021.44,903.18 2023.5,898.5C 2031.99,878.859 2040.49,859.193 2049,839.5C 2108.76,695.273 2144.26,545.273 2155.5,389.5 Z"/></g>
<g><path style="opacity:1" fill="#7798cb" d="M 2199.5,629.5 C 2199.5,631.5 2199.5,633.5 2199.5,635.5C 2163.76,708.343 2123.42,778.343 2078.5,845.5C 2077.66,845.158 2077.33,844.492 2077.5,843.5C 2122.8,774.854 2163.46,703.52 2199.5,629.5 Z"/></g>
<g><path style="opacity:1" fill="#7797ca" d="M 1773.5,343.5 C 1854.97,464.827 1915.31,596.16 1954.5,737.5C 1960.8,762.36 1966.63,787.36 1972,812.5C 1972.17,811.333 1972.33,810.167 1972.5,809C 1967.55,782.457 1961.55,756.291 1954.5,730.5C 1953.11,723.818 1951.61,717.151 1950,710.5C 1937.06,665.179 1922.23,620.513 1905.5,576.5C 1905.5,575.167 1905.5,573.833 1905.5,572.5C 1934.66,643.871 1956.66,717.538 1971.5,793.5C 1974.49,808.434 1977.16,823.434 1979.5,838.5C 1979.66,840.199 1979.49,841.866 1979,843.5C 1976.85,831.539 1976.35,831.539 1977.5,843.5C 1976.7,844.952 1976.2,846.618 1976,848.5C 1974.94,842.774 1973.61,837.107 1972,831.5C 1971.67,833.167 1971.33,834.833 1971,836.5C 1970.33,834.5 1969.67,832.5 1969,830.5C 1968.67,831.833 1968.33,833.167 1968,834.5C 1967.08,831.899 1966.41,829.232 1966,826.5C 1965.75,827.624 1965.25,828.624 1964.5,829.5C 1959.66,812.34 1954.66,795.34 1949.5,778.5C 1950.1,778.265 1950.43,777.765 1950.5,777C 1948.3,768.899 1945.63,761.065 1942.5,753.5C 1931.73,716.639 1918.73,680.639 1903.5,645.5C 1894.63,622.763 1884.96,600.429 1874.5,578.5C 1875.4,577.791 1875.74,576.791 1875.5,575.5C 1902.27,631.137 1924.94,688.47 1943.5,747.5C 1947.45,759.74 1951.12,772.073 1954.5,784.5C 1956.76,791.452 1958.93,798.452 1961,805.5C 1960.07,797.894 1958.24,790.561 1955.5,783.5C 1952.62,770.524 1948.95,757.857 1944.5,745.5C 1937.95,723.317 1930.79,701.317 1923,679.5C 1894.6,601.67 1859.77,527.003 1818.5,455.5C 1818.5,454.5 1818.5,453.5 1818.5,452.5C 1866,533.414 1905,618.414 1935.5,707.5C 1941.04,725.456 1946.37,743.456 1951.5,761.5C 1954.69,772.629 1958.03,783.629 1961.5,794.5C 1959.1,782.244 1956.1,770.244 1952.5,758.5C 1947.28,739.273 1941.61,720.273 1935.5,701.5C 1920.26,653.703 1902.26,607.037 1881.5,561.5C 1882.92,563.031 1883.59,562.698 1883.5,560.5C 1914.06,627.177 1938.73,696.177 1957.5,767.5C 1961.52,782.745 1965.35,798.079 1969,813.5C 1966.45,796.888 1962.95,780.554 1958.5,764.5C 1955.32,750.75 1951.82,737.083 1948,723.5C 1908.69,588.576 1850.53,462.91 1773.5,346.5C 1773.5,345.5 1773.5,344.5 1773.5,343.5 Z"/></g>
<g><path style="opacity:1" fill="#eaeff6" d="M 1935.5,701.5 C 1941.61,720.273 1947.28,739.273 1952.5,758.5C 1952.74,759.791 1952.4,760.791 1951.5,761.5C 1946.37,743.456 1941.04,725.456 1935.5,707.5C 1935.5,705.5 1935.5,703.5 1935.5,701.5 Z"/></g>
<g><path style="opacity:1" fill="#7899cb" d="M 1850.5,552.5 C 1870.7,590.774 1889.37,629.774 1906.5,669.5C 1918.25,699.086 1929.58,728.752 1940.5,758.5C 1940.75,761.854 1941.75,764.854 1943.5,767.5C 1943.75,770.854 1944.75,773.854 1946.5,776.5C 1949.26,783.272 1951.76,790.272 1954,797.5C 1954.67,799.167 1954.67,800.833 1954,802.5C 1953.58,801.244 1952.75,800.577 1951.5,800.5C 1924.66,715.496 1890.66,633.496 1849.5,554.5C 1850.34,554.158 1850.67,553.492 1850.5,552.5 Z"/></g>
<g><path style="opacity:1" fill="#fbfcfd" d="M 2199.5,729.5 C 2199.5,739.5 2199.5,749.5 2199.5,759.5C 2144.86,818.806 2087.86,875.806 2028.5,930.5C 2028.5,930.167 2028.5,929.833 2028.5,929.5C 2089.28,865.751 2146.28,799.084 2199.5,729.5 Z"/></g>
<g><path style="opacity:1" fill="#7898ca" d="M 1858.5,349.5 C 1939.83,505.201 1984.83,671.201 1993.5,847.5C 1993.5,849.833 1993.5,852.167 1993.5,854.5C 1993.67,859.179 1993.5,863.845 1993,868.5C 1992.83,862.652 1992.33,856.985 1991.5,851.5C 1991.72,841.954 1991.06,832.621 1989.5,823.5C 1988.39,802.113 1986.56,780.78 1984,759.5C 1965.54,615.725 1923.37,479.725 1857.5,351.5C 1858.34,351.158 1858.67,350.492 1858.5,349.5 Z"/></g>
<g><path style="opacity:1" fill="#c7d4e9" d="M 1942.5,753.5 C 1945.63,761.065 1948.3,768.899 1950.5,777C 1950.43,777.765 1950.1,778.265 1949.5,778.5C 1948.83,776.167 1948.17,773.833 1947.5,771.5C 1945.21,765.681 1943.55,759.681 1942.5,753.5 Z"/></g>
<g><path style="opacity:1" fill="#fafbfd" d="M 2199.5,762.5 C 2199.5,770.5 2199.5,778.5 2199.5,786.5C 2144.42,839.117 2087.08,888.617 2027.5,935C 2087.78,880.216 2145.12,822.716 2199.5,762.5 Z"/></g>
<g><path style="opacity:1" fill="#b1c4e1" d="M 1940.5,758.5 C 1942.47,761.084 1943.47,764.084 1943.5,767.5C 1941.75,764.854 1940.75,761.854 1940.5,758.5 Z"/></g>
<g><path style="opacity:1" fill="#e7edf6" d="M 1972.5,763.5 C 1975.62,779.965 1978.28,796.631 1980.5,813.5C 1980.77,815.099 1980.43,816.432 1979.5,817.5C 1977.15,799.716 1974.15,782.049 1970.5,764.5C 1971.49,764.672 1972.16,764.338 1972.5,763.5 Z"/></g>
<g><path style="opacity:1" fill="#b2c5e2" d="M 1943.5,767.5 C 1944.8,769.371 1945.8,771.371 1946.5,773.5C 1946.5,774.5 1946.5,775.5 1946.5,776.5C 1944.75,773.854 1943.75,770.854 1943.5,767.5 Z"/></g>
<g><path style="opacity:1" fill="#d1dced" d="M 1944.5,745.5 C 1948.95,757.857 1952.62,770.524 1955.5,783.5C 1955.5,784.167 1955.17,784.5 1954.5,784.5C 1951.12,772.073 1947.45,759.74 1943.5,747.5C 1944.34,747.158 1944.67,746.492 1944.5,745.5 Z"/></g>
<g><path style="opacity:1" fill="#d1dced" d="M 1952.5,758.5 C 1956.1,770.244 1959.1,782.244 1961.5,794.5C 1958.03,783.629 1954.69,772.629 1951.5,761.5C 1952.4,760.791 1952.74,759.791 1952.5,758.5 Z"/></g>
<g><path style="opacity:1" fill="#e4eaf4" d="M 1954.5,730.5 C 1961.55,756.291 1967.55,782.457 1972.5,809C 1972.33,810.167 1972.17,811.333 1972,812.5C 1966.63,787.36 1960.8,762.36 1954.5,737.5C 1954.5,735.167 1954.5,732.833 1954.5,730.5 Z"/></g>
<g><path style="opacity:1" fill="#d3ddee" d="M 1958.5,764.5 C 1962.95,780.554 1966.45,796.888 1969,813.5C 1965.35,798.079 1961.52,782.745 1957.5,767.5C 1958.4,766.791 1958.74,765.791 1958.5,764.5 Z"/></g>
<g><path style="opacity:1" fill="#fafbfd" d="M 2199.5,790.5 C 2199.5,797.167 2199.5,803.833 2199.5,810.5C 2145.92,854.277 2090.59,895.611 2033.5,934.5C 2090.29,888.396 2145.62,840.396 2199.5,790.5 Z"/></g>
<g><path style="opacity:1" fill="#fafbfd" d="M 2199.5,813.5 C 2199.5,819.5 2199.5,825.5 2199.5,831.5C 2166,854.144 2132.34,876.644 2098.5,899C 2077.11,912.691 2055.44,925.858 2033.5,938.5C 2089.94,898.402 2145.28,856.736 2199.5,813.5 Z"/></g>
<g><path style="opacity:1" fill="#7899cd" d="M 2199.5,684.5 C 2199.5,686.167 2199.5,687.833 2199.5,689.5C 2178.43,722.618 2156.6,755.284 2134,787.5C 2116.54,812.107 2098.37,836.107 2079.5,859.5C 2078.83,859.5 2078.5,859.167 2078.5,858.5C 2121.31,802.208 2161.64,744.208 2199.5,684.5 Z"/></g>
<g><path style="opacity:1" fill="#f9fbfd" d="M 2199.5,833.5 C 2199.5,838.833 2199.5,844.167 2199.5,849.5C 2148.54,879.656 2096.87,908.822 2044.5,937C 2041.28,938.955 2037.95,940.288 2034.5,941C 2090.73,906.912 2145.73,871.078 2199.5,833.5 Z"/></g>
<g><path style="opacity:1" fill="#7e9ed0" d="M 2023.5,726.5 C 2023.18,733.354 2023.51,740.021 2024.5,746.5C 2021.97,787.636 2017.97,828.636 2012.5,869.5C 2011.21,874.113 2010.21,878.78 2009.5,883.5C 2009.77,881.901 2009.43,880.568 2008.5,879.5C 2008.73,874.759 2009.4,870.092 2010.5,865.5C 2016.92,819.207 2021.25,772.874 2023.5,726.5 Z"/></g>
<g><path style="opacity:1" fill="#6d94cc" d="M 2000.5,780.5 C 2001.38,805.155 2001.72,829.821 2001.5,854.5C 2000.51,861.313 2000.18,868.313 2000.5,875.5C 1999.34,883.99 1999.18,892.657 2000,901.5C 2000.33,898.5 2000.67,895.5 2001,892.5C 2001.22,893.938 2001.72,895.271 2002.5,896.5C 2003.47,894.604 2003.8,892.604 2003.5,890.5C 2004.37,895.346 2004.53,900.346 2004,905.5C 2005.05,901.197 2005.88,896.863 2006.5,892.5C 2006.91,888.124 2007.58,883.79 2008.5,879.5C 2009.43,880.568 2009.77,881.901 2009.5,883.5C 2008.79,886.786 2008.46,890.119 2008.5,893.5C 2007.15,896.952 2006.65,900.619 2007,904.5C 2007.98,902.26 2008.48,899.927 2008.5,897.5C 2009.4,898.209 2009.74,899.209 2009.5,900.5C 2009.17,902.5 2008.83,904.5 2008.5,906.5C 2007.49,908.402 2007.32,910.402 2008,912.5C 2008.76,909.937 2009.26,909.937 2009.5,912.5C 2008.24,915.423 2007.74,918.423 2008,921.5C 2008.97,919.122 2009.64,919.456 2010,922.5C 2011.71,920.091 2012.54,917.425 2012.5,914.5C 2013.67,913.486 2014.34,912.153 2014.5,910.5C 2015.12,910.917 2015.46,911.584 2015.5,912.5C 2014.13,915.444 2013.29,918.444 2013,921.5C 2014.19,919.623 2015.19,917.623 2016,915.5C 2016.69,914.262 2017.19,914.262 2017.5,915.5C 2017.5,916.167 2017.5,916.833 2017.5,917.5C 2015.16,920.5 2013.66,923.834 2013,927.5C 2013.91,926.672 2014.58,925.672 2015,924.5C 2015.33,925.5 2015.67,926.5 2016,927.5C 2017,926.167 2018,924.833 2019,923.5C 2018.04,926.48 2017.04,929.48 2016,932.5C 2017.09,930.651 2018.43,928.984 2020,927.5C 2020.17,927.833 2020.33,928.167 2020.5,928.5C 2018.17,931.833 2015.83,935.167 2013.5,938.5C 2015.43,940.05 2017.26,941.717 2019,943.5C 2019.84,941.993 2021,941.493 2022.5,942C 2021.02,943.574 2019.35,944.907 2017.5,946C 2018.83,946.667 2020.17,947.333 2021.5,948C 2021.17,948.333 2020.83,948.667 2020.5,949C 2022.5,948.581 2024.5,947.747 2026.5,946.5C 2027.46,946.97 2027.46,947.637 2026.5,948.5C 2015.02,953.736 2003.35,958.736 1991.5,963.5C 1981.86,908.245 1968.52,853.912 1951.5,800.5C 1952.75,800.577 1953.58,801.244 1954,802.5C 1954.67,800.833 1954.67,799.167 1954,797.5C 1951.76,790.272 1949.26,783.272 1946.5,776.5C 1946.5,775.5 1946.5,774.5 1946.5,773.5C 1946.33,772.508 1946.66,771.842 1947.5,771.5C 1948.17,773.833 1948.83,776.167 1949.5,778.5C 1954.66,795.34 1959.66,812.34 1964.5,829.5C 1965.25,828.624 1965.75,827.624 1966,826.5C 1966.41,829.232 1967.08,831.899 1968,834.5C 1968.33,833.167 1968.67,831.833 1969,830.5C 1969.67,832.5 1970.33,834.5 1971,836.5C 1971.33,834.833 1971.67,833.167 1972,831.5C 1973.61,837.107 1974.94,842.774 1976,848.5C 1976.2,846.618 1976.7,844.952 1977.5,843.5C 1978.43,853.101 1979.26,853.434 1980,844.5C 1980.79,847.471 1981.46,850.471 1982,853.5C 1982.33,850.833 1982.67,848.167 1983,845.5C 1983.89,850.523 1984.89,855.523 1986,860.5C 1985.57,852.015 1984.74,843.681 1983.5,835.5C 1983.17,831.5 1982.83,827.5 1982.5,823.5C 1982.23,821.901 1982.57,820.568 1983.5,819.5C 1983.58,822.206 1983.91,824.873 1984.5,827.5C 1985.8,836.46 1986.8,845.46 1987.5,854.5C 1988.15,860.81 1988.65,867.143 1989,873.5C 1989.86,871.913 1990.53,870.246 1991,868.5C 1991.33,871.833 1991.67,875.167 1992,878.5C 1993.12,877.051 1993.78,875.384 1994,873.5C 1994.33,878.167 1994.67,882.833 1995,887.5C 1995.5,881.175 1995.67,874.842 1995.5,868.5C 1995.83,854.656 1995.5,840.99 1994.5,827.5C 1994.44,818.487 1994.11,809.487 1993.5,800.5C 1993.18,796.298 1993.52,792.298 1994.5,788.5C 1995.58,801.477 1996.24,814.477 1996.5,827.5C 1996.17,850.51 1996.5,873.51 1997.5,896.5C 1998.5,889.197 1998.83,881.863 1998.5,874.5C 1999.57,851.336 1999.57,828.336 1998.5,805.5C 1998.5,795.833 1998.5,786.167 1998.5,776.5C 1998.34,773.813 1998.5,771.146 1999,768.5C 1999.18,772.688 1999.68,776.688 2000.5,780.5 Z"/></g>
<g><path style="opacity:1" fill="#afc3e2" d="M 1994.5,827.5 C 1995.5,840.99 1995.83,854.656 1995.5,868.5C 1994.83,863.833 1994.17,859.167 1993.5,854.5C 1993.5,852.167 1993.5,849.833 1993.5,847.5C 1994.49,841.021 1994.82,834.354 1994.5,827.5 Z"/></g>
<g><path style="opacity:1" fill="#8eabd6" d="M 1979.5,838.5 C 1979.83,838.5 1980.17,838.5 1980.5,838.5C 1981,840.482 1981.5,842.482 1982,844.5C 1982.5,842.19 1982.66,839.857 1982.5,837.5C 1983.34,837.158 1983.67,836.492 1983.5,835.5C 1984.74,843.681 1985.57,852.015 1986,860.5C 1984.89,855.523 1983.89,850.523 1983,845.5C 1982.67,848.167 1982.33,850.833 1982,853.5C 1981.46,850.471 1980.79,847.471 1980,844.5C 1979.26,853.434 1978.43,853.101 1977.5,843.5C 1976.35,831.539 1976.85,831.539 1979,843.5C 1979.49,841.866 1979.66,840.199 1979.5,838.5 Z"/></g>
<g><path style="opacity:1" fill="#d5dfef" d="M 1989.5,823.5 C 1991.06,832.621 1991.72,841.954 1991.5,851.5C 1991.67,852.492 1991.34,853.158 1990.5,853.5C 1989.89,845.161 1989.22,836.828 1988.5,828.5C 1989.45,827.081 1989.78,825.415 1989.5,823.5 Z"/></g>
<g><path style="opacity:1" fill="#c3d2e9" d="M 1985.5,821.5 C 1986.72,832.334 1987.72,843.334 1988.5,854.5C 1988.17,854.5 1987.83,854.5 1987.5,854.5C 1986.8,845.46 1985.8,836.46 1984.5,827.5C 1985.46,825.735 1985.79,823.735 1985.5,821.5 Z"/></g>
<g><path style="opacity:1" fill="#b1c5e2" d="M 1972.5,813.5 C 1974.9,818.486 1975.74,823.819 1975,829.5C 1973.71,824.227 1972.88,818.894 1972.5,813.5 Z"/></g>
<g><path style="opacity:1" fill="#c8d6eb" d="M 1998.5,805.5 C 1999.57,828.336 1999.57,851.336 1998.5,874.5C 1997.51,865.682 1997.17,856.682 1997.5,847.5C 1998.5,833.677 1998.83,819.677 1998.5,805.5 Z"/></g>
<g><path style="opacity:1" fill="#c6d4e9" d="M 1980.5,813.5 C 1981.17,816.833 1981.83,820.167 1982.5,823.5C 1982.83,827.5 1983.17,831.5 1983.5,835.5C 1983.67,836.492 1983.34,837.158 1982.5,837.5C 1981.35,830.844 1980.35,824.177 1979.5,817.5C 1980.43,816.432 1980.77,815.099 1980.5,813.5 Z"/></g>
<g><path style="opacity:1" fill="#b0c3e1" d="M 1961.5,794.5 C 1964.25,800.822 1965.75,807.489 1966,814.5C 1963.8,807.981 1962.3,801.315 1961.5,794.5 Z"/></g>
<g><path style="opacity:1" fill="#cfdaed" d="M 1972.5,791.5 C 1975.91,806.917 1978.58,822.583 1980.5,838.5C 1980.17,838.5 1979.83,838.5 1979.5,838.5C 1977.16,823.434 1974.49,808.434 1971.5,793.5C 1972.34,793.158 1972.67,792.492 1972.5,791.5 Z"/></g>
<g><path style="opacity:1" fill="#afc2e1" d="M 1955.5,783.5 C 1958.24,790.561 1960.07,797.894 1961,805.5C 1958.93,798.452 1956.76,791.452 1954.5,784.5C 1955.17,784.5 1955.5,784.167 1955.5,783.5 Z"/></g>
<g><path style="opacity:1" fill="#e5ebf5" d="M 1979.5,773.5 C 1982.44,789.242 1984.44,805.242 1985.5,821.5C 1985.79,823.735 1985.46,825.735 1984.5,827.5C 1983.91,824.873 1983.58,822.206 1983.5,819.5C 1981.84,808.21 1980.51,796.876 1979.5,785.5C 1979.5,781.5 1979.5,777.5 1979.5,773.5 Z"/></g>
<g><path style="opacity:1" fill="#f9fafc" d="M 2199.5,851.5 C 2199.5,856.167 2199.5,860.833 2199.5,865.5C 2144.74,894.049 2089.07,920.715 2032.5,945.5C 2089.26,915.955 2144.93,884.622 2199.5,851.5 Z"/></g>
<g><path style="opacity:1" fill="#82a2d2" d="M 1996.5,827.5 C 1997.49,833.979 1997.82,840.646 1997.5,847.5C 1997.17,856.682 1997.51,865.682 1998.5,874.5C 1998.83,881.863 1998.5,889.197 1997.5,896.5C 1996.5,873.51 1996.17,850.51 1996.5,827.5 Z"/></g>
<g><path style="opacity:1" fill="#c1d1e9" d="M 2001.5,854.5 C 2001.18,858.702 2001.52,862.702 2002.5,866.5C 2002.08,870.835 2001.58,875.168 2001,879.5C 2000.51,878.207 2000.34,876.873 2000.5,875.5C 2000.18,868.313 2000.51,861.313 2001.5,854.5 Z"/></g>
<g><path style="opacity:1" fill="#88a6d4" d="M 1991.5,851.5 C 1992.33,856.985 1992.83,862.652 1993,868.5C 1993.5,863.845 1993.67,859.179 1993.5,854.5C 1994.17,859.167 1994.83,863.833 1995.5,868.5C 1995.67,874.842 1995.5,881.175 1995,887.5C 1994.67,882.833 1994.33,878.167 1994,873.5C 1993.78,875.384 1993.12,877.051 1992,878.5C 1991.67,875.167 1991.33,871.833 1991,868.5C 1990.53,870.246 1989.86,871.913 1989,873.5C 1988.65,867.143 1988.15,860.81 1987.5,854.5C 1987.83,854.5 1988.17,854.5 1988.5,854.5C 1989.16,857.787 1989.66,861.12 1990,864.5C 1990.5,860.848 1990.67,857.182 1990.5,853.5C 1991.34,853.158 1991.67,852.492 1991.5,851.5 Z"/></g>
<g><path style="opacity:1" fill="#d3deef" d="M 2009.5,857.5 C 2009.19,860.385 2009.53,863.052 2010.5,865.5C 2009.4,870.092 2008.73,874.759 2008.5,879.5C 2007.58,883.79 2006.91,888.124 2006.5,892.5C 2005.84,891.207 2005.51,889.707 2005.5,888C 2007.28,877.741 2008.61,867.575 2009.5,857.5 Z"/></g>
<g><path style="opacity:1" fill="#fcfdfd" d="M 2199.5,867.5 C 2199.5,872.5 2199.5,877.5 2199.5,882.5C 2012.88,981.77 1817.88,1060.6 1614.5,1119C 1435.05,1170.87 1253.05,1210.37 1068.5,1237.5C 1016.17,1237.5 963.833,1237.5 911.5,1237.5C 912.453,1235.39 914.119,1234.22 916.5,1234C 1211.92,1204.38 1500.26,1142.05 1781.5,1047C 1803.03,1039.39 1824.36,1031.55 1845.5,1023.5C 1966.94,979.457 2084.94,927.457 2199.5,867.5 Z"/></g>
<g><path style="opacity:1" fill="#d6e0f0" d="M 2016.5,871.5 C 2016.26,872.791 2016.6,873.791 2017.5,874.5C 2015.18,883.449 2013.01,892.449 2011,901.5C 2010.63,903.491 2009.79,905.158 2008.5,906.5C 2008.83,904.5 2009.17,902.5 2009.5,900.5C 2011.96,890.866 2014.29,881.199 2016.5,871.5 Z"/></g>
<g><path style="opacity:1" fill="#7a9bce" d="M 2199.5,372.5 C 2199.5,378.833 2199.5,385.167 2199.5,391.5C 2192.91,433.948 2185.08,476.281 2176,518.5C 2142.16,657.557 2091,789.557 2022.5,914.5C 2096.25,800.321 2155.25,678.321 2199.5,548.5C 2199.5,550.833 2199.5,553.167 2199.5,555.5C 2154.34,684.822 2095,807.156 2021.5,922.5C 2021.85,923.696 2022.35,923.696 2023,922.5C 2041.42,896.263 2059.59,869.93 2077.5,843.5C 2077.33,844.492 2077.66,845.158 2078.5,845.5C 2061.58,871.66 2043.92,897.326 2025.5,922.5C 2025.67,922.833 2025.83,923.167 2026,923.5C 2043.74,901.935 2061.24,880.268 2078.5,858.5C 2078.5,859.167 2078.83,859.5 2079.5,859.5C 2062.36,882.909 2044.36,905.742 2025.5,928C 2026.45,928.617 2027.28,928.451 2028,927.5C 2069.41,883.293 2109.41,837.96 2148,791.5C 2165.03,769.646 2182.2,747.98 2199.5,726.5C 2199.5,727.5 2199.5,728.5 2199.5,729.5C 2146.28,799.084 2089.28,865.751 2028.5,929.5C 2025.04,932.462 2021.7,935.629 2018.5,939C 2022.48,937.206 2025.81,934.373 2028.5,930.5C 2087.86,875.806 2144.86,818.806 2199.5,759.5C 2199.5,760.5 2199.5,761.5 2199.5,762.5C 2145.12,822.716 2087.78,880.216 2027.5,935C 2087.08,888.617 2144.42,839.117 2199.5,786.5C 2199.5,787.833 2199.5,789.167 2199.5,790.5C 2145.62,840.396 2090.29,888.396 2033.5,934.5C 2090.59,895.611 2145.92,854.277 2199.5,810.5C 2199.5,811.5 2199.5,812.5 2199.5,813.5C 2145.28,856.736 2089.94,898.402 2033.5,938.5C 2055.44,925.858 2077.11,912.691 2098.5,899C 2132.34,876.644 2166,854.144 2199.5,831.5C 2199.5,832.167 2199.5,832.833 2199.5,833.5C 2145.73,871.078 2090.73,906.912 2034.5,941C 2037.95,940.288 2041.28,938.955 2044.5,937C 2096.87,908.822 2148.54,879.656 2199.5,849.5C 2199.5,850.167 2199.5,850.833 2199.5,851.5C 2144.93,884.622 2089.26,915.955 2032.5,945.5C 2030.82,947.008 2028.82,948.008 2026.5,948.5C 2027.46,947.637 2027.46,946.97 2026.5,946.5C 2024.5,947.747 2022.5,948.581 2020.5,949C 2020.83,948.667 2021.17,948.333 2021.5,948C 2020.17,947.333 2018.83,946.667 2017.5,946C 2019.35,944.907 2021.02,943.574 2022.5,942C 2021,941.493 2019.84,941.993 2019,943.5C 2017.26,941.717 2015.43,940.05 2013.5,938.5C 2015.83,935.167 2018.17,931.833 2020.5,928.5C 2020.33,928.167 2020.17,927.833 2020,927.5C 2018.43,928.984 2017.09,930.651 2016,932.5C 2017.04,929.48 2018.04,926.48 2019,923.5C 2018,924.833 2017,926.167 2016,927.5C 2015.67,926.5 2015.33,925.5 2015,924.5C 2014.58,925.672 2013.91,926.672 2013,927.5C 2013.66,923.834 2015.16,920.5 2017.5,917.5C 2023.02,908.461 2028.02,899.128 2032.5,889.5C 2043.98,868.615 2054.81,847.282 2065,825.5C 2133.97,681.743 2178.81,530.743 2199.5,372.5 Z"/></g>
<g><path style="opacity:1" fill="#d8e1f0" d="M 2012.5,869.5 C 2012.33,870.492 2012.66,871.158 2013.5,871.5C 2012.04,878.81 2010.7,886.143 2009.5,893.5C 2009.17,893.5 2008.83,893.5 2008.5,893.5C 2008.46,890.119 2008.79,886.786 2009.5,883.5C 2010.21,878.78 2011.21,874.113 2012.5,869.5 Z"/></g>
<g><path style="opacity:1" fill="#fcfdfd" d="M 2199.5,884.5 C 2199.5,889.833 2199.5,895.167 2199.5,900.5C 2063.99,974.584 1923.33,1037.25 1777.5,1088.5C 1591.52,1152.27 1401.85,1201.94 1208.5,1237.5C 1166.17,1237.5 1123.83,1237.5 1081.5,1237.5C 1318.39,1202.15 1550.39,1145.98 1777.5,1069C 1923.14,1018.67 2063.81,957.173 2199.5,884.5 Z"/></g>
<g><path style="opacity:1" fill="#b4c7e4" d="M 2004.5,869.5 C 2004.22,871.415 2004.55,873.081 2005.5,874.5C 2004.62,879.791 2003.95,885.124 2003.5,890.5C 2002.85,889.726 2002.52,888.726 2002.5,887.5C 2003.04,881.337 2003.7,875.337 2004.5,869.5 Z"/></g>
<g><path style="opacity:1" fill="#d3deef" d="M 2017.5,885.5 C 2017.26,886.791 2017.6,887.791 2018.5,888.5C 2016.35,894.808 2014.18,901.141 2012,907.5C 2012.93,899.894 2014.76,892.561 2017.5,885.5 Z"/></g>
<g><path style="opacity:1" fill="#e5ecf5" d="M 2031.5,886.5 C 2031.26,887.791 2031.6,888.791 2032.5,889.5C 2028.02,899.128 2023.02,908.461 2017.5,917.5C 2017.5,916.833 2017.5,916.167 2017.5,915.5C 2022.54,906.041 2027.21,896.374 2031.5,886.5 Z"/></g>
<g><path style="opacity:1" fill="#d4deef" d="M 2020.5,889.5 C 2020.33,890.492 2020.66,891.158 2021.5,891.5C 2019.36,897.915 2017.03,904.249 2014.5,910.5C 2014.34,912.153 2013.67,913.486 2012.5,914.5C 2014.8,905.933 2017.47,897.599 2020.5,889.5 Z"/></g>
<g><path style="opacity:1" fill="#a3bbde" d="M 2008.5,893.5 C 2008.83,893.5 2009.17,893.5 2009.5,893.5C 2009.57,894.959 2009.23,896.292 2008.5,897.5C 2008.48,899.927 2007.98,902.26 2007,904.5C 2006.65,900.619 2007.15,896.952 2008.5,893.5 Z"/></g>
<g><path style="opacity:1" fill="#fdfdfd" d="M 2199.5,903.5 C 2199.5,909.167 2199.5,914.833 2199.5,920.5C 2035.21,1011.89 1863.21,1085.72 1683.5,1142C 1565.37,1178.86 1446.03,1210.7 1325.5,1237.5C 1290.17,1237.5 1254.83,1237.5 1219.5,1237.5C 1365.96,1209.84 1510.63,1174.34 1653.5,1131C 1695.54,1117.92 1737.2,1104.08 1778.5,1089.5C 1924.03,1039.11 2064.36,977.108 2199.5,903.5 Z"/></g>
<g><path style="opacity:1" fill="#d2deef" d="M 2022.5,896.5 C 2022.33,897.492 2022.66,898.158 2023.5,898.5C 2021.44,903.18 2019.27,907.846 2017,912.5C 2017.94,906.854 2019.77,901.521 2022.5,896.5 Z"/></g>
<g><path style="opacity:1" fill="#6479a6" d="M 2199.5,865.5 C 2199.5,866.167 2199.5,866.833 2199.5,867.5C 2084.94,927.457 1966.94,979.457 1845.5,1023.5C 1844.83,1023.5 1844.5,1023.17 1844.5,1022.5C 1894.13,1004.18 1943.13,984.517 1991.5,963.5C 2003.35,958.736 2015.02,953.736 2026.5,948.5C 2028.82,948.008 2030.82,947.008 2032.5,945.5C 2089.07,920.715 2144.74,894.049 2199.5,865.5 Z"/></g>
<g><path style="opacity:1" fill="#fdfdfd" d="M 2199.5,922.5 C 2199.5,928.5 2199.5,934.5 2199.5,940.5C 2052.85,1024.48 1899.18,1093.32 1738.5,1147C 1636.28,1181.35 1532.95,1211.52 1428.5,1237.5C 1397.17,1237.5 1365.83,1237.5 1334.5,1237.5C 1500.54,1201.07 1663.54,1153.9 1823.5,1096C 1953.33,1047.58 2078.66,989.748 2199.5,922.5 Z"/></g>
<g><path style="opacity:1" fill="#a0b8de" d="M 2028.5,929.5 C 2028.5,929.833 2028.5,930.167 2028.5,930.5C 2025.81,934.373 2022.48,937.206 2018.5,939C 2021.7,935.629 2025.04,932.462 2028.5,929.5 Z"/></g>
<g><path style="opacity:1" fill="#c4d3ea" d="M 2033.5,934.5 C 2031.57,937.615 2028.91,939.448 2025.5,940C 2028.05,937.9 2030.72,936.067 2033.5,934.5 Z"/></g>
<g><path style="opacity:1" fill="#cdd9ed" d="M 2033.5,938.5 C 2033,940.085 2032,940.585 2030.5,940C 2031.24,938.961 2032.24,938.461 2033.5,938.5 Z"/></g>
<g><path style="opacity:1" fill="#fdfdfd" d="M 2199.5,943.5 C 2199.5,950.167 2199.5,956.833 2199.5,963.5C 2070.36,1038.18 1935.36,1100.68 1794.5,1151C 1704.76,1183.19 1614.09,1212.03 1522.5,1237.5C 1494.17,1237.5 1465.83,1237.5 1437.5,1237.5C 1607.01,1195.2 1772.67,1141.04 1934.5,1075C 2025.36,1035.9 2113.69,992.071 2199.5,943.5 Z"/></g>
<g><path style="opacity:1" fill="#fdfdfd" d="M 2199.5,965.5 C 2199.5,972.5 2199.5,979.5 2199.5,986.5C 2068.45,1063.52 1931.11,1127.36 1787.5,1178C 1728.41,1198.97 1669.08,1218.81 1609.5,1237.5C 1583.17,1237.5 1556.83,1237.5 1530.5,1237.5C 1659.81,1201.18 1786.81,1158.01 1911.5,1108C 2010.67,1066.58 2106.67,1019.08 2199.5,965.5 Z"/></g>
<g><path style="opacity:1" fill="#667ba7" d="M 2199.5,900.5 C 2199.5,901.5 2199.5,902.5 2199.5,903.5C 2064.36,977.108 1924.03,1039.11 1778.5,1089.5C 1777.83,1089.5 1777.5,1089.17 1777.5,1088.5C 1923.33,1037.25 2063.99,974.584 2199.5,900.5 Z"/></g>
<g><path style="opacity:1" fill="#fdfdfe" d="M 2199.5,989.5 C 2199.5,996.5 2199.5,1003.5 2199.5,1010.5C 2129.71,1052.23 2057.71,1090.07 1983.5,1124C 1887.5,1166.34 1789.84,1204.17 1690.5,1237.5C 1666.17,1237.5 1641.83,1237.5 1617.5,1237.5C 1731.86,1201.99 1844.19,1160.82 1954.5,1114C 2038.46,1076.69 2120.13,1035.19 2199.5,989.5 Z"/></g>
<g><path style="opacity:1" fill="#fdfdfe" d="M 2199.5,1013.5 C 2199.5,1021.17 2199.5,1028.83 2199.5,1036.5C 2100.54,1095.81 1997.21,1146.98 1889.5,1190C 1848.6,1206.35 1807.6,1222.19 1766.5,1237.5C 1743.17,1237.5 1719.83,1237.5 1696.5,1237.5C 1796.29,1204.11 1894.29,1165.95 1990.5,1123C 2062.33,1090.09 2132,1053.59 2199.5,1013.5 Z"/></g>
<g><path style="opacity:1" fill="#fdfdfe" d="M 2199.5,1038.5 C 2199.5,1046.83 2199.5,1055.17 2199.5,1063.5C 2124.49,1108.34 2046.83,1148.51 1966.5,1184C 1924.31,1202.44 1881.97,1220.27 1839.5,1237.5C 1817.17,1237.5 1794.83,1237.5 1772.5,1237.5C 1886.73,1195.91 1998.07,1147.41 2106.5,1092C 2137.85,1074.66 2168.85,1056.83 2199.5,1038.5 Z"/></g>
<g><path style="opacity:1" fill="#fdfdfe" d="M 2199.5,1065.5 C 2199.5,1074.17 2199.5,1082.83 2199.5,1091.5C 2130.43,1132.54 2059.1,1169.71 1985.5,1203C 1959.44,1214.62 1933.44,1226.12 1907.5,1237.5C 1886.5,1237.5 1865.5,1237.5 1844.5,1237.5C 1938.23,1200.41 2029.9,1158.58 2119.5,1112C 2146.36,1096.74 2173.02,1081.24 2199.5,1065.5 Z"/></g>
<g><path style="opacity:1" fill="#677daa" d="M 2199.5,963.5 C 2199.5,964.167 2199.5,964.833 2199.5,965.5C 2106.67,1019.08 2010.67,1066.58 1911.5,1108C 1786.81,1158.01 1659.81,1201.18 1530.5,1237.5C 1527.83,1237.5 1525.17,1237.5 1522.5,1237.5C 1614.09,1212.03 1704.76,1183.19 1794.5,1151C 1935.36,1100.68 2070.36,1038.18 2199.5,963.5 Z"/></g>
<g><path style="opacity:1" fill="#687eaa" d="M 2199.5,920.5 C 2199.5,921.167 2199.5,921.833 2199.5,922.5C 2078.66,989.748 1953.33,1047.58 1823.5,1096C 1663.54,1153.9 1500.54,1201.07 1334.5,1237.5C 1331.5,1237.5 1328.5,1237.5 1325.5,1237.5C 1446.03,1210.7 1565.37,1178.86 1683.5,1142C 1863.21,1085.72 2035.21,1011.89 2199.5,920.5 Z"/></g>
<g><path style="opacity:1" fill="#fdfdfe" d="M 2199.5,1093.5 C 2199.5,1102.5 2199.5,1111.5 2199.5,1120.5C 2126.2,1163.15 2050.87,1202.15 1973.5,1237.5C 1953.17,1237.5 1932.83,1237.5 1912.5,1237.5C 1992.09,1203.54 2070.09,1166.04 2146.5,1125C 2164.31,1114.67 2181.98,1104.17 2199.5,1093.5 Z"/></g>
<g><path style="opacity:1" fill="#fdfdfe" d="M 2199.5,1123.5 C 2199.5,1132.5 2199.5,1141.5 2199.5,1150.5C 2146.15,1181.34 2091.82,1210.34 2036.5,1237.5C 2017.17,1237.5 1997.83,1237.5 1978.5,1237.5C 2053.73,1202.39 2127.39,1164.39 2199.5,1123.5 Z"/></g>
<g><path style="opacity:1" fill="#6a80ac" d="M 1777.5,1088.5 C 1777.5,1089.17 1777.83,1089.5 1778.5,1089.5C 1737.2,1104.08 1695.54,1117.92 1653.5,1131C 1510.63,1174.34 1365.96,1209.84 1219.5,1237.5C 1215.83,1237.5 1212.17,1237.5 1208.5,1237.5C 1401.85,1201.94 1591.52,1152.27 1777.5,1088.5 Z"/></g>
<g><path style="opacity:1" fill="#687eab" d="M 2199.5,986.5 C 2199.5,987.5 2199.5,988.5 2199.5,989.5C 2120.13,1035.19 2038.46,1076.69 1954.5,1114C 1844.19,1160.82 1731.86,1201.99 1617.5,1237.5C 1614.83,1237.5 1612.17,1237.5 1609.5,1237.5C 1669.08,1218.81 1728.41,1198.97 1787.5,1178C 1931.11,1127.36 2068.45,1063.52 2199.5,986.5 Z"/></g>
<g><path style="opacity:1" fill="#687eaa" d="M 2199.5,1036.5 C 2199.5,1037.17 2199.5,1037.83 2199.5,1038.5C 2168.85,1056.83 2137.85,1074.66 2106.5,1092C 1998.07,1147.41 1886.73,1195.91 1772.5,1237.5C 1770.5,1237.5 1768.5,1237.5 1766.5,1237.5C 1807.6,1222.19 1848.6,1206.35 1889.5,1190C 1997.21,1146.98 2100.54,1095.81 2199.5,1036.5 Z"/></g>
<g><path style="opacity:1" fill="#697fab" d="M 2199.5,1120.5 C 2199.5,1121.5 2199.5,1122.5 2199.5,1123.5C 2127.39,1164.39 2053.73,1202.39 1978.5,1237.5C 1976.83,1237.5 1975.17,1237.5 1973.5,1237.5C 2050.87,1202.15 2126.2,1163.15 2199.5,1120.5 Z"/></g>
<g><path style="opacity:1" fill="#fdfdfe" d="M 2199.5,1152.5 C 2199.5,1161.83 2199.5,1171.17 2199.5,1180.5C 2165.79,1200.02 2131.79,1219.02 2097.5,1237.5C 2078.83,1237.5 2060.17,1237.5 2041.5,1237.5C 2095.06,1210.72 2147.72,1182.39 2199.5,1152.5 Z"/></g>
<g><path style="opacity:1" fill="#687eaa" d="M 2199.5,940.5 C 2199.5,941.5 2199.5,942.5 2199.5,943.5C 2113.69,992.071 2025.36,1035.9 1934.5,1075C 1772.67,1141.04 1607.01,1195.2 1437.5,1237.5C 1434.5,1237.5 1431.5,1237.5 1428.5,1237.5C 1532.95,1211.52 1636.28,1181.35 1738.5,1147C 1899.18,1093.32 2052.85,1024.48 2199.5,940.5 Z"/></g>
<g><path style="opacity:1" fill="#677eaa" d="M 2199.5,1010.5 C 2199.5,1011.5 2199.5,1012.5 2199.5,1013.5C 2132,1053.59 2062.33,1090.09 1990.5,1123C 1894.29,1165.95 1796.29,1204.11 1696.5,1237.5C 1694.5,1237.5 1692.5,1237.5 1690.5,1237.5C 1789.84,1204.17 1887.5,1166.34 1983.5,1124C 2057.71,1090.07 2129.71,1052.23 2199.5,1010.5 Z"/></g>
<g><path style="opacity:1" fill="#6a80ac" d="M 1844.5,1022.5 C 1844.5,1023.17 1844.83,1023.5 1845.5,1023.5C 1824.36,1031.55 1803.03,1039.39 1781.5,1047C 1500.26,1142.05 1211.92,1204.38 916.5,1234C 914.119,1234.22 912.453,1235.39 911.5,1237.5C 910.5,1237.5 909.5,1237.5 908.5,1237.5C 909.476,1236.19 910.476,1234.85 911.5,1233.5C 1231.3,1201.54 1542.3,1131.21 1844.5,1022.5 Z"/></g>
<g><path style="opacity:1" fill="#687eab" d="M 2199.5,1063.5 C 2199.5,1064.17 2199.5,1064.83 2199.5,1065.5C 2173.02,1081.24 2146.36,1096.74 2119.5,1112C 2029.9,1158.58 1938.23,1200.41 1844.5,1237.5C 1842.83,1237.5 1841.17,1237.5 1839.5,1237.5C 1881.97,1220.27 1924.31,1202.44 1966.5,1184C 2046.83,1148.51 2124.49,1108.34 2199.5,1063.5 Z"/></g>
<g><path style="opacity:1" fill="#fdfdfe" d="M 2199.5,1183.5 C 2199.5,1193.17 2199.5,1202.83 2199.5,1212.5C 2184.5,1220.33 2169.83,1228.66 2155.5,1237.5C 2137.5,1237.5 2119.5,1237.5 2101.5,1237.5C 2134.42,1219.91 2167.08,1201.91 2199.5,1183.5 Z"/></g>
<g><path style="opacity:1" fill="#697fac" d="M 2199.5,1150.5 C 2199.5,1151.17 2199.5,1151.83 2199.5,1152.5C 2147.72,1182.39 2095.06,1210.72 2041.5,1237.5C 2039.83,1237.5 2038.17,1237.5 2036.5,1237.5C 2091.82,1210.34 2146.15,1181.34 2199.5,1150.5 Z"/></g>
<g><path style="opacity:1" fill="#6b81ad" d="M 2199.5,1180.5 C 2199.5,1181.5 2199.5,1182.5 2199.5,1183.5C 2167.08,1201.91 2134.42,1219.91 2101.5,1237.5C 2100.17,1237.5 2098.83,1237.5 2097.5,1237.5C 2131.79,1219.02 2165.79,1200.02 2199.5,1180.5 Z"/></g>
<g><path style="opacity:1" fill="#6980ac" d="M 2199.5,882.5 C 2199.5,883.167 2199.5,883.833 2199.5,884.5C 2063.81,957.173 1923.14,1018.67 1777.5,1069C 1550.39,1145.98 1318.39,1202.15 1081.5,1237.5C 1077.17,1237.5 1072.83,1237.5 1068.5,1237.5C 1253.05,1210.37 1435.05,1170.87 1614.5,1119C 1817.88,1060.6 2012.88,981.77 2199.5,882.5 Z"/></g>
<g><path style="opacity:1" fill="#6a80ac" d="M 2199.5,1091.5 C 2199.5,1092.17 2199.5,1092.83 2199.5,1093.5C 2181.98,1104.17 2164.31,1114.67 2146.5,1125C 2070.09,1166.04 1992.09,1203.54 1912.5,1237.5C 1910.83,1237.5 1909.17,1237.5 1907.5,1237.5C 1933.44,1226.12 1959.44,1214.62 1985.5,1203C 2059.1,1169.71 2130.43,1132.54 2199.5,1091.5 Z"/></g>
<g><path style="opacity:1" fill="#fdfdfd" d="M 2199.5,1214.5 C 2199.5,1222.17 2199.5,1229.83 2199.5,1237.5C 2186.17,1237.5 2172.83,1237.5 2159.5,1237.5C 2172.8,1229.85 2186.13,1222.18 2199.5,1214.5 Z"/></g>
<g><path style="opacity:1" fill="#6980ac" d="M 2199.5,1212.5 C 2199.5,1213.17 2199.5,1213.83 2199.5,1214.5C 2186.13,1222.18 2172.8,1229.85 2159.5,1237.5C 2158.17,1237.5 2156.83,1237.5 2155.5,1237.5C 2169.83,1228.66 2184.5,1220.33 2199.5,1212.5 Z"/></g>
</svg>
